<?xml version="1.0" encoding="utf-8"?>
<!-- Generator: Adobe Illustrator 13.0.0, SVG Export Plug-In . SVG Version: 6.00 Build 14948)  -->
<!DOCTYPE svg PUBLIC "-//W3C//DTD SVG 1.1//EN" "http://www.w3.org/Graphics/SVG/1.1/DTD/svg11.dtd">
<svg version="1.1" id="Layer_1" xmlns="http://www.w3.org/2000/svg" xmlns:xlink="http://www.w3.org/1999/xlink" x="0px" y="0px"
	 width="536.024px" height="142.961px" viewBox="0 0 536.024 142.961" enable-background="new 0 0 536.024 142.961"
	 xml:space="preserve">
<g>
	<path fill="#144069" d="M0,72.667c0-11.121,5.369-17.18,16.873-23.47l4.525-2.455c5.293-2.914,7.824-6.442,7.824-11.427
		c0-5.599-3.988-9.434-10.584-9.434c-6.443,0-10.508,4.526-10.508,12.349v0.613H1.15v-0.92c0-11.505,6.98-18.408,17.794-18.408
		c10.585,0,17.564,6.366,17.564,15.877c0,7.363-3.681,12.808-11.504,16.797l-4.526,2.3C13.422,58.094,9.05,61.468,7.67,66.531
		h28.838v6.596H0V72.667z"/>
	<path fill="#144069" d="M68.874,48.431C68.874,41.298,67.263,38,60.82,38c-7.439,0-11.888,4.372-11.888,12.271v22.857h-6.749
		V33.014h6.443v5.829c3.068-4.601,7.286-6.826,12.885-6.826c6.059,0,10.201,1.841,12.425,5.446c1.687,2.607,1.764,5.752,1.764,9.663
		v1.918v24.084h-6.826V48.431z"/>
	<path fill="#144069" d="M120.875,73.128h-6.52v-5.063c-3.451,4.218-7.823,6.289-13.039,6.289c-10.508,0-17.564-8.054-17.564-21.169
		c0-13.345,7.133-21.475,17.564-21.475c5.599,0,9.894,2.07,13.039,6.212V17.98h6.52V73.128z M102.62,37.77
		c-7.439,0-11.888,5.522-11.888,15.876c0,9.204,4.602,14.726,11.965,14.726c7.44,0,11.888-5.444,11.888-15.569
		C114.585,42.832,110.52,37.77,102.62,37.77"/>
	<path fill="#144069" d="M155.925,74.661c-16.184,0-26.155-10.66-26.155-29.068c0-18.407,9.971-29.068,26.155-29.068
		c16.106,0,26.077,10.814,26.077,29.068c0,8.82-2.224,15.876-7.133,21.706l6.596,5.521l-3.681,4.68l-7.747-6.367
		C165.742,73.511,161.14,74.661,155.925,74.661 M157.919,61.315l3.681-4.678l7.364,6.059c3.374-3.682,5.292-9.588,5.292-17.104
		c0-14.342-6.98-22.549-18.331-22.549s-18.408,8.207-18.408,22.549c0,14.343,7.057,22.549,18.408,22.549
		c2.991,0,5.599-0.536,8.053-1.764L157.919,61.315z"/>
	<path fill="#144069" d="M197.341,57.634c0,7.21,1.687,10.508,8.13,10.508c7.746,0,11.811-4.602,11.811-13.499V33.014h6.75v40.113
		h-6.443v-5.983c-2.761,4.604-7.209,6.98-13.269,6.98c-5.675,0-9.893-1.993-12.041-5.445c-1.687-2.607-1.764-5.753-1.764-9.665
		v-1.916V33.014h6.826V57.634z"/>
	<path fill="#144069" d="M244.891,74.354c-8.283,0-13.038-4.602-13.038-12.042c0-7.363,4.525-11.428,13.729-12.578
		c5.599-0.691,9.357-0.844,11.045-1.535c1.841-0.767,1.917-1.687,1.917-4.372c0-4.065-2.992-6.135-9.05-6.135
		c-6.29,0-9.434,2.608-9.434,7.44h-6.366v-0.307c0-8.054,5.982-13.115,16.03-13.115c10.737,0,15.646,3.911,15.646,12.424v20.095
		c0,2.762,0.23,4.065,2.608,4.065c0.46,0,0.998-0.076,1.764-0.229v5.215c-1.457,0.384-2.685,0.614-3.911,0.614
		c-4.526,0-6.75-1.995-6.75-5.907v-0.229C254.939,72.131,250.261,74.354,244.891,74.354 M245.735,55.487
		c-4.832,0.767-6.903,2.684-6.903,6.749c0,3.912,2.532,6.213,7.21,6.213c7.363,0,12.426-4.142,12.426-9.739v-5.983
		C254.863,54.643,250.491,54.72,245.735,55.487"/>
	<path fill="#144069" d="M311.007,73.128h-6.521v-5.063c-3.451,4.218-7.824,6.289-13.039,6.289
		c-10.508,0-17.563-8.054-17.563-21.169c0-13.345,7.133-21.475,17.563-21.475c5.601,0,9.895,2.07,13.039,6.212V17.98h6.521V73.128z
		 M292.751,37.77c-7.439,0-11.888,5.522-11.888,15.876c0,9.204,4.603,14.726,11.965,14.726c7.44,0,11.889-5.444,11.889-15.569
		C304.717,42.832,300.651,37.77,292.751,37.77"/>
	<path fill="#144069" d="M321.512,33.014h6.52v7.21c2.148-5.446,5.83-8.054,11.122-8.054c0.613,0,1.149,0,1.764,0.077v7.132
		c-0.536-0.076-1.073-0.076-1.61-0.076c-7.211,0-11.045,3.988-11.045,11.504v22.32h-6.75V33.014z"/>
	<path fill="#144069" d="M357.559,74.354c-8.283,0-13.037-4.602-13.037-12.042c0-7.363,4.525-11.428,13.729-12.578
		c5.599-0.691,9.356-0.844,11.045-1.535c1.841-0.767,1.917-1.687,1.917-4.372c0-4.065-2.991-6.135-9.05-6.135
		c-6.29,0-9.435,2.608-9.435,7.44h-6.366v-0.307c0-8.054,5.983-13.115,16.03-13.115c10.738,0,15.647,3.911,15.647,12.424v20.095
		c0,2.762,0.229,4.065,2.606,4.065c0.46,0,0.997-0.076,1.765-0.229v5.215c-1.457,0.384-2.685,0.614-3.911,0.614
		c-4.525,0-6.75-1.995-6.75-5.907v-0.229C367.606,72.131,362.929,74.354,357.559,74.354 M358.403,55.487
		c-4.832,0.767-6.902,2.684-6.902,6.749c0,3.912,2.531,6.213,7.209,6.213c7.363,0,12.426-4.142,12.426-9.739v-5.983
		C367.531,54.643,363.159,54.72,358.403,55.487"/>
	<path fill="#144069" d="M415.313,48.431c0-7.133-1.61-10.431-8.054-10.431c-7.438,0-11.888,4.372-11.888,12.271v22.857h-6.749
		V33.014h6.441v5.829c3.069-4.601,7.287-6.826,12.887-6.826c6.059,0,10.201,1.841,12.425,5.446c1.687,2.607,1.763,5.752,1.763,9.663
		v1.918v24.084h-6.825V48.431z"/>
	<path fill="#144069" d="M443.767,67.527c0.767,0,1.917-0.075,3.604-0.229v5.753c-2.07,0.383-3.911,0.613-5.369,0.613
		c-6.441,0-8.59-2.225-8.59-8.36V38.383h-5.981v-5.369h5.981V21.817h6.75v11.197h7.209v5.369h-7.209v24.62
		C440.161,66.301,440.774,67.527,443.767,67.527"/>
	<polygon points="502.867,72.011 497.17,72.011 497.17,38.855 464.013,38.855 464.013,33.157 497.17,33.157 497.17,0 502.867,0 
		502.867,33.157 536.024,33.157 536.024,38.855 502.867,38.855 	"/>
	<polygon fill-rule="evenodd" clip-rule="evenodd" fill="#144069" points="522.175,27.696 508.327,27.696 508.327,0 536.024,0 
		536.024,27.696 	"/>
	<path fill="#144069" d="M473.194,8.937c0,5.067-3.977,9.044-9.154,9.044c-5.12,0-9.207-3.977-9.207-9.044
		c0-4.959,4.087-8.936,9.207-8.936C469.218,0,473.194,3.978,473.194,8.937 M457.118,8.937c0,3.977,2.947,7.139,6.975,7.139
		c3.928,0,6.816-3.162,6.816-7.084c0-3.98-2.889-7.195-6.869-7.195C460.065,1.796,457.118,5.012,457.118,8.937 M462.625,13.622
		h-2.072V4.686c0.816-0.164,1.961-0.273,3.435-0.273c1.686,0,2.449,0.273,3.105,0.655c0.488,0.381,0.869,1.089,0.869,1.961
		c0,0.98-0.763,1.743-1.85,2.072v0.108c0.87,0.327,1.361,0.981,1.633,2.179c0.275,1.362,0.435,1.908,0.657,2.234h-2.237
		c-0.27-0.326-0.434-1.142-0.709-2.178c-0.16-0.981-0.706-1.418-1.851-1.418h-0.98V13.622z M462.678,8.555h0.981
		c1.144,0,2.072-0.382,2.072-1.307c0-0.818-0.6-1.364-1.908-1.364c-0.546,0-0.928,0.055-1.146,0.111V8.555z"/>
	<path d="M0,86.889h18.139c1.904,0,3.746,0.195,5.527,0.586c1.78,0.39,3.351,1.07,4.713,2.043c1.361,0.97,2.452,2.265,3.271,3.884
		c0.818,1.619,1.228,3.657,1.228,6.112c0,4.438-1.362,7.779-4.085,10.026c-2.723,2.247-6.78,3.37-12.168,3.37H5.656v17.311H0V86.889
		z M5.656,107.712h10.998c1.884,0,3.474-0.176,4.77-0.527c1.294-0.354,2.346-0.862,3.156-1.529c0.809-0.667,1.4-1.504,1.771-2.513
		c0.371-1.011,0.557-2.172,0.557-3.486c0-1.485-0.252-2.728-0.757-3.728s-1.2-1.79-2.085-2.37c-0.886-0.58-1.928-0.986-3.128-1.215
		c-1.199-0.229-2.476-0.343-3.827-0.343H5.656V107.712z"/>
	<path d="M66.049,98.143c2.229,0,4.256,0.372,6.084,1.115c1.829,0.741,3.38,1.813,4.656,3.213c1.276,1.399,2.261,3.113,2.957,5.141
		c0.695,2.029,1.042,4.338,1.042,6.928c0,2.666-0.357,5.022-1.071,7.069s-1.718,3.761-3.013,5.142
		c-1.296,1.382-2.847,2.429-4.656,3.142c-1.81,0.715-3.809,1.072-5.999,1.072c-2.171,0-4.156-0.357-5.956-1.072
		c-1.799-0.713-3.346-1.76-4.641-3.142c-1.296-1.381-2.295-3.095-3-5.142c-0.704-2.047-1.056-4.403-1.056-7.069
		s0.352-5.022,1.056-7.069c0.705-2.047,1.704-3.756,3-5.127c1.295-1.371,2.842-2.414,4.641-3.128
		C61.893,98.5,63.878,98.143,66.049,98.143 M66.049,126.536c2.78,0,4.965-1,6.556-3c1.59-1.999,2.385-4.998,2.385-8.997
		c0-2.019-0.214-3.784-0.643-5.299c-0.428-1.515-1.038-2.771-1.828-3.77c-0.79-1-1.738-1.752-2.842-2.257
		c-1.105-0.506-2.314-0.758-3.628-0.758c-1.333,0-2.552,0.263-3.656,0.785c-1.105,0.524-2.052,1.3-2.842,2.328
		c-0.791,1.029-1.4,2.295-1.828,3.799c-0.429,1.505-0.643,3.229-0.643,5.171c0,3.979,0.795,6.976,2.385,8.983
		C61.055,125.531,63.25,126.536,66.049,126.536"/>
	<path d="M112.017,130.963c-8.569,0-13.044-3.38-13.425-10.14h5.598c0.057,3.809,2.657,5.713,7.799,5.713
		c2.399,0,4.174-0.447,5.327-1.343c1.152-0.896,1.728-2.123,1.728-3.685c0-0.667-0.114-1.229-0.343-1.686
		c-0.228-0.457-0.671-0.866-1.328-1.229c-0.657-0.36-1.585-0.719-2.785-1.07c-1.2-0.353-2.752-0.776-4.656-1.271
		c-1.867-0.438-3.466-0.891-4.799-1.356c-1.333-0.467-2.438-1.033-3.313-1.7c-0.877-0.667-1.519-1.48-1.928-2.442
		c-0.41-0.962-0.615-2.166-0.615-3.612c0-1.315,0.272-2.515,0.814-3.601c0.543-1.085,1.328-2.027,2.357-2.827
		c1.028-0.8,2.271-1.429,3.728-1.886c1.456-0.457,3.08-0.685,4.87-0.685c8.169,0,12.358,2.932,12.568,8.798h-5.598
		c-0.153-2.99-2.371-4.485-6.656-4.485c-0.857,0-1.681,0.086-2.471,0.257c-0.79,0.172-1.485,0.43-2.085,0.771
		c-0.6,0.343-1.071,0.782-1.414,1.313c-0.343,0.533-0.514,1.152-0.514,1.857c0,0.628,0.061,1.138,0.185,1.528
		c0.124,0.39,0.462,0.753,1.015,1.086c0.552,0.333,1.404,0.661,2.556,0.984c1.152,0.324,2.747,0.733,4.784,1.229
		c1.886,0.457,3.528,0.927,4.928,1.414c1.4,0.484,2.566,1.075,3.499,1.77c0.933,0.695,1.633,1.558,2.1,2.585
		c0.466,1.028,0.699,2.285,0.699,3.771c0,1.39-0.29,2.685-0.871,3.884c-0.581,1.201-1.419,2.247-2.513,3.143
		c-1.095,0.896-2.419,1.604-3.971,2.128C115.735,130.701,113.978,130.963,112.017,130.963"/>
	<path d="M157.072,130.249c-0.629,0.152-1.271,0.252-1.928,0.3c-0.657,0.049-1.357,0.071-2.1,0.071
		c-1.771,0-3.142-0.214-4.113-0.642c-0.971-0.43-1.705-1.063-2.2-1.9c-0.495-0.838-0.795-1.847-0.899-3.027
		c-0.105-1.181-0.157-2.523-0.157-4.028v-17.794h-3.885V98.8h3.885v-7.74h5.541v7.74h5.113v4.429h-5.113v18.052
		c0,1.085,0.066,1.956,0.2,2.614c0.133,0.656,0.338,1.162,0.614,1.513c0.276,0.353,0.6,0.581,0.971,0.686
		c0.372,0.105,0.795,0.157,1.271,0.157c0.495,0,0.967-0.015,1.414-0.043c0.448-0.027,0.909-0.081,1.386-0.157V130.249z"/>
	<path d="M200.869,127.764c0,10.131-4.551,15.197-13.654,15.197c-1.962,0-3.732-0.225-5.313-0.671
		c-1.58-0.449-2.918-1.086-4.013-1.914c-1.095-0.828-1.942-1.828-2.542-2.999c-0.6-1.171-0.9-2.481-0.9-3.929h5.827
		c0,3.467,2.304,5.199,6.913,5.199c1.218,0,2.332-0.153,3.342-0.457c1.009-0.306,1.866-0.843,2.57-1.614
		c0.705-0.771,1.258-1.848,1.657-3.228c0.4-1.381,0.6-3.156,0.6-5.327v-1.571c-2.514,3.01-5.513,4.514-8.997,4.514
		c-2.02,0-3.823-0.376-5.413-1.128c-1.591-0.752-2.939-1.824-4.042-3.214c-1.105-1.391-1.947-3.085-2.528-5.084
		c-0.582-2-0.872-4.257-0.872-6.771c0-2.552,0.324-4.855,0.972-6.913c0.647-2.056,1.566-3.804,2.756-5.241s2.59-2.543,4.199-3.313
		c1.609-0.771,3.375-1.157,5.299-1.157c3.408,0,6.284,1.029,8.626,3.085V98.8h5.513V127.764z M195.355,121.194v-14.938
		c-2.456-2.533-5.218-3.799-8.283-3.799c-2.381,0-4.29,1.018-5.728,3.056c-1.437,2.037-2.156,5.122-2.156,9.255
		c0,3.98,0.681,6.938,2.042,8.869c1.361,1.933,3.232,2.9,5.613,2.9C189.929,126.537,192.766,124.756,195.355,121.194"/>
	<path d="M239.239,103.913c-0.896-0.248-2.038-0.372-3.428-0.372c-2.781,0-5.209,1.485-7.284,4.456v22.225h-5.599V98.801h5.599
		v4.427c2.247-3.39,4.97-5.085,8.169-5.085c0.419,0,0.833,0.015,1.243,0.043c0.409,0.028,0.843,0.091,1.3,0.186V103.913z"/>
	<path d="M270.268,130.963c-2.285,0-4.366-0.366-6.241-1.1c-1.876-0.732-3.491-1.795-4.842-3.185
		c-1.353-1.389-2.395-3.108-3.128-5.156c-0.734-2.047-1.1-4.375-1.1-6.982c0-2.591,0.362-4.9,1.085-6.929
		c0.724-2.026,1.729-3.74,3.014-5.142c1.286-1.399,2.828-2.47,4.628-3.213c1.8-0.743,3.774-1.114,5.927-1.114
		c2.229,0,4.256,0.371,6.085,1.114c1.827,0.743,3.38,1.813,4.655,3.213c1.275,1.401,2.262,3.115,2.957,5.142
		c0.694,2.028,1.042,4.338,1.042,6.929v1.341h-23.652c0.153,1.848,0.491,3.448,1.015,4.799c0.524,1.353,1.209,2.462,2.057,3.328
		c0.846,0.867,1.823,1.505,2.927,1.914c1.104,0.41,2.294,0.615,3.571,0.615c0.933,0,1.852-0.119,2.757-0.358
		c0.904-0.238,1.718-0.594,2.441-1.071c0.724-0.476,1.319-1.07,1.786-1.785c0.466-0.714,0.728-1.547,0.785-2.499h5.713
		c-0.229,1.656-0.729,3.113-1.5,4.37c-0.771,1.257-1.757,2.313-2.956,3.171c-1.199,0.856-2.566,1.504-4.099,1.942
		C273.662,130.744,272.02,130.963,270.268,130.963 M278.466,111.482c-0.457-3.065-1.447-5.337-2.971-6.812
		c-1.524-1.477-3.485-2.214-5.885-2.214c-1.085,0-2.113,0.175-3.084,0.527s-1.838,0.899-2.599,1.644
		c-0.763,0.741-1.405,1.68-1.929,2.813c-0.523,1.133-0.899,2.48-1.128,4.042H278.466z"/>
	<path d="M321.521,130.963c-3.104,0-5.809-0.366-8.112-1.1c-2.305-0.732-4.218-1.756-5.742-3.07
		c-1.523-1.313-2.667-2.871-3.427-4.671c-0.762-1.799-1.172-3.756-1.229-5.869h5.513c0.133,1.639,0.548,3.057,1.243,4.256
		c0.694,1.199,1.607,2.185,2.742,2.956c1.133,0.771,2.446,1.349,3.941,1.729c1.495,0.381,3.1,0.571,4.813,0.571
		c1.561,0,2.999-0.161,4.313-0.485c1.313-0.324,2.441-0.799,3.385-1.428c0.942-0.629,1.68-1.4,2.213-2.314s0.801-1.952,0.801-3.113
		c0-1.199-0.239-2.214-0.715-3.043c-0.476-0.828-1.247-1.557-2.313-2.185c-1.066-0.629-2.467-1.19-4.199-1.686
		c-1.732-0.494-3.847-1.009-6.341-1.542c-2.533-0.515-4.685-1.133-6.456-1.857c-1.771-0.724-3.209-1.561-4.313-2.514
		c-1.104-0.951-1.899-2.042-2.385-3.271c-0.485-1.228-0.729-2.623-0.729-4.184c0-1.733,0.361-3.343,1.086-4.827
		c0.723-1.486,1.757-2.757,3.098-3.814c1.344-1.057,2.967-1.886,4.871-2.484c1.904-0.601,4.028-0.9,6.37-0.9
		c2.399,0,4.608,0.29,6.627,0.871s3.747,1.424,5.185,2.529c1.438,1.104,2.575,2.466,3.414,4.084
		c0.837,1.618,1.275,3.466,1.313,5.542h-5.599c-0.533-5.294-4.095-7.942-10.684-7.942c-3.294,0-5.808,0.611-7.541,1.828
		c-1.732,1.219-2.599,2.81-2.599,4.771c0,0.914,0.142,1.699,0.429,2.356c0.285,0.658,0.804,1.239,1.557,1.743
		c0.752,0.504,1.775,0.966,3.07,1.385c1.294,0.419,2.951,0.848,4.971,1.285c1.979,0.457,3.728,0.891,5.24,1.3
		c1.515,0.41,2.843,0.805,3.985,1.186c1.047,0.382,2.062,0.887,3.042,1.514c0.98,0.629,1.861,1.391,2.643,2.286
		c0.78,0.895,1.404,1.938,1.871,3.128c0.466,1.189,0.699,2.518,0.699,3.984c0,1.886-0.395,3.618-1.185,5.198
		c-0.791,1.581-1.896,2.947-3.313,4.099c-1.419,1.152-3.114,2.057-5.085,2.715C326.02,130.635,323.862,130.963,321.521,130.963"/>
	<path d="M399.51,129.621l-3.399,4.084l-7.198-5.684c-3.237,1.962-6.865,2.941-10.883,2.941c-3.028,0-5.818-0.548-8.369-1.642
		c-2.553-1.096-4.747-2.623-6.585-4.584s-3.27-4.314-4.299-7.057c-1.028-2.742-1.542-5.789-1.542-9.141
		c0-3.294,0.5-6.317,1.499-9.069c1-2.751,2.414-5.117,4.242-7.098s4.018-3.519,6.569-4.613s5.38-1.642,8.484-1.642
		c3.046,0,5.836,0.527,8.369,1.584c2.532,1.057,4.718,2.566,6.556,4.527c1.837,1.963,3.266,4.323,4.284,7.084
		c1.019,2.763,1.528,5.838,1.528,9.227c0,6.456-1.866,11.836-5.599,16.139L399.51,129.621z M388.826,121.223
		c2.686-3.123,4.027-7.351,4.027-12.683c0-2.722-0.361-5.17-1.085-7.34c-0.724-2.171-1.738-4.004-3.042-5.499
		c-1.305-1.495-2.856-2.643-4.656-3.442s-3.775-1.2-5.927-1.2c-2.21,0-4.228,0.396-6.056,1.186
		c-1.828,0.791-3.399,1.924-4.713,3.399c-1.314,1.476-2.343,3.3-3.086,5.471c-0.742,2.171-1.113,4.646-1.113,7.426
		c0,2.724,0.371,5.166,1.113,7.328c0.743,2.161,1.767,3.999,3.071,5.512c1.304,1.514,2.86,2.671,4.67,3.471
		c1.81,0.801,3.789,1.199,5.941,1.199c2.399,0,4.58-0.485,6.543-1.456l-4.343-3.398l3.428-4.085L388.826,121.223z"/>
	<polygon points="447.049,130.221 420.255,130.221 420.255,86.889 425.91,86.889 425.91,125.021 447.049,125.021 	"/>
</g>
</svg>
